# Generated car model - 88 vertices
v -0.350000 0.380000 1.120000
v -0.270000 0.380000 1.120000
v -0.280718 0.420000 1.120000
v -0.350000 0.380000 1.120000
v -0.280718 0.420000 1.120000
v -0.310000 0.449282 1.120000
v -0.350000 0.380000 1.120000
v -0.310000 0.449282 1.120000
v -0.350000 0.460000 1.120000
v -0.350000 0.380000 1.120000
v -0.350000 0.460000 1.120000
v -0.390000 0.449282 1.120000
v -0.350000 0.380000 1.120000
v -0.390000 0.449282 1.120000
v -0.419282 0.420000 1.120000
v -0.350000 0.380000 1.120000
v -0.419282 0.420000 1.120000
v -0.430000 0.380000 1.120000
v -0.350000 0.380000 1.120000
v -0.430000 0.380000 1.120000
v -0.419282 0.340000 1.120000
v -0.350000 0.380000 1.120000
v -0.419282 0.340000 1.120000
v -0.390000 0.310718 1.120000
v -0.350000 0.380000 1.120000
v -0.390000 0.310718 1.120000
v -0.350000 0.300000 1.120000
v -0.350000 0.380000 1.120000
v -0.350000 0.300000 1.120000
v -0.310000 0.310718 1.120000
v -0.350000 0.380000 1.120000
v -0.310000 0.310718 1.120000
v -0.280718 0.340000 1.120000
v -0.350000 0.380000 1.120000
v -0.280718 0.340000 1.120000
v -0.270000 0.380000 1.120000
v 0.350000 0.380000 1.120000
v 0.430000 0.380000 1.120000
v 0.419282 0.420000 1.120000
v 0.350000 0.380000 1.120000
v 0.419282 0.420000 1.120000
v 0.390000 0.449282 1.120000
v 0.350000 0.380000 1.120000
v 0.390000 0.449282 1.120000
v 0.350000 0.460000 1.120000
v 0.350000 0.380000 1.120000
v 0.350000 0.460000 1.120000
v 0.310000 0.449282 1.120000
v 0.350000 0.380000 1.120000
v 0.310000 0.449282 1.120000
v 0.280718 0.420000 1.120000
v 0.350000 0.380000 1.120000
v 0.280718 0.420000 1.120000
v 0.270000 0.380000 1.120000
v 0.350000 0.380000 1.120000
v 0.270000 0.380000 1.120000
v 0.280718 0.340000 1.120000
v 0.350000 0.380000 1.120000
v 0.280718 0.340000 1.120000
v 0.310000 0.310718 1.120000
v 0.350000 0.380000 1.120000
v 0.310000 0.310718 1.120000
v 0.350000 0.300000 1.120000
v 0.350000 0.380000 1.120000
v 0.350000 0.300000 1.120000
v 0.390000 0.310718 1.120000
v 0.350000 0.380000 1.120000
v 0.390000 0.310718 1.120000
v 0.419282 0.340000 1.120000
v 0.350000 0.380000 1.120000
v 0.419282 0.340000 1.120000
v 0.430000 0.380000 1.120000
v -0.480000 0.350000 -1.120000
v -0.200000 0.350000 -1.120000
v -0.200000 0.480000 -1.120000
v -0.480000 0.480000 -1.120000
v 0.200000 0.350000 -1.120000
v 0.480000 0.350000 -1.120000
v 0.480000 0.480000 -1.120000
v 0.200000 0.480000 -1.120000
v -0.480000 0.280000 1.120000
v -0.220000 0.280000 1.120000
v -0.220000 0.310000 1.120000
v -0.480000 0.310000 1.120000
v 0.220000 0.280000 1.120000
v 0.480000 0.280000 1.120000
v 0.480000 0.310000 1.120000
v 0.220000 0.310000 1.120000
vn 0.000000 0.000000 1.000000
vn 0.000000 0.000000 1.000000
vn 0.000000 0.000000 1.000000
vn 0.000000 -0.000000 1.000000
vn 0.000000 0.000000 1.000000
vn 0.000000 0.000000 1.000000
vn 0.000000 0.000000 1.000000
vn 0.000000 0.000000 1.000000
vn 0.000000 0.000000 1.000000
vn 0.000000 0.000000 1.000000
vn 0.000000 0.000000 1.000000
vn -0.000000 0.000000 1.000000
vn 0.000000 0.000000 1.000000
vn 0.000000 0.000000 1.000000
vn 0.000000 0.000000 1.000000
vn 0.000000 -0.000000 1.000000
vn 0.000000 0.000000 1.000000
vn 0.000000 0.000000 1.000000
vn 0.000000 0.000000 1.000000
vn 0.000000 0.000000 1.000000
vn 0.000000 0.000000 1.000000
vn 0.000000 0.000000 1.000000
vn 0.000000 0.000000 1.000000
vn -0.000000 0.000000 1.000000
vn 0.000000 0.000000 1.000000
vn 0.000000 0.000000 1.000000
vn 0.000000 0.000000 1.000000
vn 0.000000 0.000000 1.000000
f 1//1 2//1 3//1
f 4//2 5//2 6//2
f 7//3 8//3 9//3
f 10//4 11//4 12//4
f 13//5 14//5 15//5
f 16//6 17//6 18//6
f 19//7 20//7 21//7
f 22//8 23//8 24//8
f 25//9 26//9 27//9
f 28//10 29//10 30//10
f 31//11 32//11 33//11
f 34//12 35//12 36//12
f 37//13 38//13 39//13
f 40//14 41//14 42//14
f 43//15 44//15 45//15
f 46//16 47//16 48//16
f 49//17 50//17 51//17
f 52//18 53//18 54//18
f 55//19 56//19 57//19
f 58//20 59//20 60//20
f 61//21 62//21 63//21
f 64//22 65//22 66//22
f 67//23 68//23 69//23
f 70//24 71//24 72//24
f 73//25 74//25 75//25 76//25
f 77//26 78//26 79//26 80//26
f 81//27 82//27 83//27 84//27
f 85//28 86//28 87//28 88//28
